HIERARCHY
ROOT Hips
{
	OFFSET 0.000000 0.000000 0.000000
	CHANNELS 6 Xposition Yposition Zposition Zrotation Xrotation Yrotation
	JOINT Spine
	{
		OFFSET 0.146975 -0.472929 0.035833
		CHANNELS 3 Zrotation Xrotation Yrotation
		JOINT Spine1
		{
			OFFSET -0.309531 -0.042403 -0.059657
			CHANNELS 3 Zrotation Xrotation Yrotation
			JOINT Spine2
			{
				OFFSET 0.000000 0.000000 0.000000
				CHANNELS 3 Zrotation Xrotation Yrotation
				JOINT Neck
				{
					OFFSET 0.309531 0.042403 0.059657
					CHANNELS 3 Zrotation Xrotation Yrotation
					JOINT Head
					{
						OFFSET -0.090233 -0.100944 -0.256558
						CHANNELS 3 Zrotation Xrotation Yrotation
						End Site
						{
							OFFSET 0.00 0.00 0.00
						}
					}
				}
				JOINT LeftShoulder
				{
					OFFSET 0.353124 0.124228 0.024586
					CHANNELS 3 Zrotation Xrotation Yrotation
					JOINT LeftArm
					{
						OFFSET 0.043593 0.081825 -0.035071
						CHANNELS 3 Zrotation Xrotation Yrotation
						JOINT LeftForeArm
						{
							OFFSET 0.032492 -0.029651 -0.155948
							CHANNELS 3 Zrotation Xrotation Yrotation
							JOINT LeftHand
							{
								OFFSET -0.021470 -0.052749 -0.032911
								CHANNELS 3 Zrotation Xrotation Yrotation
								End Site
								{
									OFFSET 0.00 0.00 0.00
								}
							}
						}
					}
				}
				JOINT RightShoulder
				{
					OFFSET 0.035287 0.126437 -0.074825
					CHANNELS 3 Zrotation Xrotation Yrotation
					JOINT RightArm
					{
						OFFSET 0.035287 0.126437 -0.074825
						CHANNELS 3 Zrotation Xrotation Yrotation
						JOINT RightForeArm
						{
							OFFSET 0.145102 -0.126129 -0.148233
							CHANNELS 3 Zrotation Xrotation Yrotation
							JOINT RightHand
							{
								OFFSET 0.076335 -0.120753 -0.057803
								CHANNELS 3 Zrotation Xrotation Yrotation
								End Site
								{
									OFFSET 0.00 0.00 0.00
								}
							}
						}
					}
				}
			}
		}
	}
	JOINT LeftUpLeg
	{
		OFFSET 0.099047 -0.003633 0.033567
		CHANNELS 3 Zrotation Xrotation Yrotation
		JOINT LeftLeg
		{
			OFFSET 0.048083 0.420897 -0.021121
			CHANNELS 3 Zrotation Xrotation Yrotation
			JOINT LeftFoot
			{
				OFFSET 0.039758 0.297667 0.231675
				CHANNELS 3 Zrotation Xrotation Yrotation
				JOINT LeftToe
				{
					OFFSET 0.003017 0.092631 -0.006732
					CHANNELS 3 Zrotation Xrotation Yrotation
					End Site
					{
						OFFSET 0.00 0.00 0.00
					}
				}
			}
		}
	}
	JOINT RightUpLeg
	{
		OFFSET -0.099047 0.003633 -0.033567
		CHANNELS 3 Zrotation Xrotation Yrotation
		JOINT RightLeg
		{
			OFFSET 0.024451 0.346831 0.039411
			CHANNELS 3 Zrotation Xrotation Yrotation
			JOINT RightFoot
			{
				OFFSET -0.001914 0.323345 0.275335
				CHANNELS 3 Zrotation Xrotation Yrotation
				JOINT RightToe
				{
					OFFSET -0.056739 0.057264 -0.062683
					CHANNELS 3 Zrotation Xrotation Yrotation
					End Site
					{
						OFFSET 0.00 0.00 0.00
					}
				}
			}
		}
	}
}
MOTION
Frames: 13
Frame Time: 0.033333
0.000798 -0.001444 0.001489 0.000000 -4.138356 162.736038 0.000000 10.810577 -97.800527 0.000000 0.000000 0.000000 0.000000 5.506515 58.792490 0.000000 62.177931 -138.206823 0.000000 0.000000 0.000000 0.000000 20.720698 28.046867 0.000000 74.247929 132.382120 0.000000 30.022903 -157.852794 0.000000 0.000000 0.000000 0.000000 29.683561 15.593545 0.000000 37.632686 130.998777 0.000000 22.029249 147.700742 0.000000 0.000000 0.000000 0.000000 2.854184 6.517242 0.000000 -37.648440 7.607773 0.000000 4.154542 1.865526 0.000000 0.000000 0.000000 0.000000 -6.466823 4.032644 0.000000 -40.414632 -0.339094 0.000000 37.867882 -44.736220 0.000000 0.000000 0.000000
0.000806 -0.001404 0.001563 0.000000 -3.962052 163.166917 0.000000 9.210626 -94.966883 0.000000 0.000000 0.000000 0.000000 6.283775 61.624015 0.000000 63.078109 -133.323417 0.000000 0.000000 0.000000 0.000000 23.514615 35.364199 0.000000 83.286493 20.045593 0.000000 31.443456 -120.559917 0.000000 0.000000 0.000000 0.000000 28.365503 15.968286 0.000000 34.850881 131.316270 0.000000 21.870651 148.103070 0.000000 0.000000 0.000000 0.000000 9.020443 9.680939 0.000000 -35.312421 4.338042 0.000000 3.475151 -1.115390 0.000000 0.000000 0.000000 0.000000 -5.114366 4.042618 0.000000 -39.440129 -0.330990 0.000000 36.079157 -41.279030 0.000000 0.000000 0.000000
0.000807 -0.001388 0.001576 0.000000 -2.388537 163.540931 0.000000 9.195776 -94.718049 0.000000 0.000000 0.000000 0.000000 7.025452 61.685953 0.000000 63.396126 -131.187790 0.000000 0.000000 0.000000 0.000000 26.545833 32.887958 0.000000 85.752518 55.459730 0.000000 37.626648 -130.015908 0.000000 0.000000 0.000000 0.000000 29.316886 15.990732 0.000000 37.686649 132.146842 0.000000 22.992710 148.950267 0.000000 0.000000 0.000000 0.000000 9.348236 12.887998 0.000000 -36.860559 1.376653 0.000000 1.398043 -2.863782 0.000000 0.000000 0.000000 0.000000 -5.173886 3.887729 0.000000 -40.014090 -0.259584 0.000000 33.070883 -38.914103 0.000000 0.000000 0.000000
0.000819 -0.001343 0.001602 0.000000 -2.399887 164.446315 0.000000 9.184655 -93.030322 0.000000 0.000000 0.000000 0.000000 6.513507 62.291305 0.000000 64.032375 -131.494061 0.000000 0.000000 0.000000 0.000000 24.623620 33.247074 0.000000 83.909023 -0.350332 0.000000 38.051887 -122.779593 0.000000 0.000000 0.000000 0.000000 28.041721 14.790111 0.000000 35.523422 132.978333 0.000000 22.406374 149.857565 0.000000 0.000000 0.000000 0.000000 9.765108 13.774488 0.000000 -36.673096 2.461325 0.000000 1.868282 -4.852399 0.000000 0.000000 0.000000 0.000000 -4.649196 3.612428 0.000000 -40.454515 -0.724266 0.000000 32.440049 -38.498049 0.000000 0.000000 0.000000
0.000839 -0.001301 0.001611 0.000000 -2.543101 164.742691 0.000000 9.133072 -92.526082 0.000000 0.000000 0.000000 0.000000 6.679730 61.911508 0.000000 64.115041 -132.228678 0.000000 0.000000 0.000000 0.000000 24.226241 33.168323 0.000000 84.030221 8.258802 0.000000 38.433882 -125.930166 0.000000 0.000000 0.000000 0.000000 28.158183 11.819638 0.000000 35.531065 132.461368 0.000000 22.155660 149.214986 0.000000 0.000000 0.000000 0.000000 9.428560 15.226967 0.000000 -35.819410 4.575876 0.000000 4.735232 2.941865 0.000000 0.000000 0.000000 0.000000 -3.556938 3.060068 0.000000 -40.600103 -1.119786 0.000000 33.693126 -40.065274 0.000000 0.000000 0.000000
0.000841 -0.001298 0.001615 0.000000 -2.130668 164.674481 0.000000 8.420113 -92.864590 0.000000 0.000000 0.000000 0.000000 7.156615 60.735483 0.000000 63.850556 -133.145871 0.000000 0.000000 0.000000 0.000000 22.307665 32.834748 0.000000 85.351871 -31.313095 0.000000 31.421700 -124.342772 0.000000 0.000000 0.000000 0.000000 28.167219 7.995855 0.000000 36.069443 129.862056 0.000000 21.638225 147.387143 0.000000 0.000000 0.000000 0.000000 8.969817 15.149488 0.000000 -35.697318 7.793257 0.000000 3.643534 8.102138 0.000000 0.000000 0.000000 0.000000 -4.072619 2.654115 0.000000 -40.505021 -2.850885 0.000000 34.495332 -41.344835 0.000000 0.000000 0.000000
0.000851 -0.001273 0.001650 0.000000 -1.536340 164.679178 0.000000 6.969945 -92.422584 0.000000 0.000000 0.000000 0.000000 8.644337 60.697926 0.000000 62.803589 -131.100704 0.000000 0.000000 0.000000 0.000000 23.734748 36.853500 0.000000 75.310234 -7.357086 0.000000 38.319564 -94.831300 0.000000 0.000000 0.000000 0.000000 28.467824 3.894848 0.000000 38.782667 127.546820 0.000000 22.682186 143.905114 0.000000 0.000000 0.000000 0.000000 8.688411 14.580750 0.000000 -33.196984 11.611607 0.000000 14.301519 9.432723 0.000000 0.000000 0.000000 0.000000 -10.043048 1.649760 0.000000 -39.272280 -5.566074 0.000000 37.351199 -40.738433 0.000000 0.000000 0.000000
0.000860 -0.001268 0.001676 0.000000 -1.578481 164.531556 0.000000 6.805614 -92.761712 0.000000 0.000000 0.000000 0.000000 8.620207 59.874718 0.000000 63.335822 -130.924147 0.000000 0.000000 0.000000 0.000000 22.688245 37.332241 0.000000 69.504633 34.867610 0.000000 52.772752 -120.939901 0.000000 0.000000 0.000000 0.000000 27.989912 1.826341 0.000000 42.169292 123.399111 0.000000 23.805193 142.721847 0.000000 0.000000 0.000000 0.000000 7.082114 15.037655 0.000000 -31.200120 15.159070 0.000000 9.351118 13.550430 0.000000 0.000000 0.000000 0.000000 -9.405714 0.078843 0.000000 -39.151271 -4.702260 0.000000 37.453297 -41.720753 0.000000 0.000000 0.000000
0.000867 -0.001259 0.001692 0.000000 -1.631514 164.102062 0.000000 4.162975 -92.824097 0.000000 0.000000 0.000000 0.000000 9.583183 58.527686 0.000000 62.944637 -128.481933 0.000000 0.000000 0.000000 0.000000 22.342564 39.595717 0.000000 66.627760 44.710107 0.000000 53.514570 -134.006608 0.000000 0.000000 0.000000 0.000000 24.692084 -3.145364 0.000000 49.988011 113.679685 0.000000 25.386271 139.307293 0.000000 0.000000 0.000000 0.000000 6.790543 15.112507 0.000000 -29.482869 17.081786 0.000000 19.006975 16.308837 0.000000 0.000000 0.000000 0.000000 -10.245519 -0.467519 0.000000 -39.246570 -5.057021 0.000000 39.064888 -40.213234 0.000000 0.000000 0.000000
0.000874 -0.001243 0.001696 0.000000 -1.640741 163.792430 0.000000 3.978740 -92.765107 0.000000 0.000000 0.000000 0.000000 10.072648 59.109080 0.000000 62.559879 -127.906728 0.000000 0.000000 0.000000 0.000000 22.747609 41.620079 0.000000 69.550946 41.422674 0.000000 52.547801 -129.336240 0.000000 0.000000 0.000000 0.000000 25.569283 -1.794961 0.000000 49.036988 115.350259 0.000000 26.428502 139.740539 0.000000 0.000000 0.000000 0.000000 6.660703 15.114950 0.000000 -27.837464 16.371625 0.000000 22.001371 18.596824 0.000000 0.000000 0.000000 0.000000 -10.872358 -0.726589 0.000000 -39.950741 -4.757634 0.000000 38.933176 -39.381320 0.000000 0.000000 0.000000
0.000886 -0.001239 0.001695 0.000000 -1.660995 163.720621 0.000000 4.110334 -92.805103 0.000000 0.000000 0.000000 0.000000 9.982654 59.173168 0.000000 62.559208 -127.723206 0.000000 0.000000 0.000000 0.000000 22.824961 40.718649 0.000000 69.602720 44.002015 0.000000 52.047164 -134.115811 0.000000 0.000000 0.000000 0.000000 25.713953 -1.200295 0.000000 48.193831 117.308168 0.000000 25.986657 141.285771 0.000000 0.000000 0.000000 0.000000 6.318488 15.147764 0.000000 -28.164377 16.265134 0.000000 21.651007 16.276946 0.000000 0.000000 0.000000 0.000000 -11.113093 -0.859847 0.000000 -39.723439 -4.780553 0.000000 39.959154 -39.152329 0.000000 0.000000 0.000000
0.000875 -0.001199 0.001859 0.000000 0.859851 162.848435 0.000000 0.679290 -90.927070 0.000000 0.000000 0.000000 0.000000 12.247652 63.325191 0.000000 64.529825 -117.564658 0.000000 0.000000 0.000000 0.000000 8.751310 78.046083 0.000000 15.907636 93.409201 0.000000 43.737568 133.958312 0.000000 0.000000 0.000000 0.000000 26.904470 -5.216103 0.000000 60.689736 107.997045 0.000000 27.264365 135.681110 0.000000 0.000000 0.000000 0.000000 5.974207 14.841458 0.000000 -28.682942 16.256923 0.000000 21.724832 11.544388 0.000000 0.000000 0.000000 0.000000 -11.080427 -2.750089 0.000000 -38.923240 -8.171836 0.000000 38.778733 -43.564684 0.000000 0.000000 0.000000
0.000869 -0.001119 0.001925 0.000000 0.457874 161.991508 0.000000 0.725182 -90.163645 0.000000 0.000000 0.000000 0.000000 11.706109 64.478762 0.000000 63.659097 -110.870554 0.000000 0.000000 0.000000 0.000000 2.626359 84.854272 0.000000 16.443275 97.167219 0.000000 45.022719 136.212141 0.000000 0.000000 0.000000 0.000000 26.837587 -5.778333 0.000000 58.187762 110.885866 0.000000 25.510878 136.887464 0.000000 0.000000 0.000000 0.000000 5.814640 13.800843 0.000000 -29.523297 14.547477 0.000000 23.589369 17.761495 0.000000 0.000000 0.000000 0.000000 -11.579957 -3.575498 0.000000 -39.568962 -11.198000 0.000000 39.758883 -47.808465 0.000000 0.000000 0.000000
